<svg viewBox="0 0 561 561" fill="none" xmlns="http://www.w3.org/2000/svg" xmlns:anim="http://www.w3.org/2000/anim" anim="" anim:transform-origin="50% 50%" anim:duration="1" anim:ease="ease-in-out">
    <g id="ox1">
        <g id="o1">
            <circle id="ob" cx="280.5" cy="280.5" r="280.5" fill="#EB5B56"></circle>
            <circle id="ow" cx="280.5" cy="280.5" r="180.5" fill="white"></circle>
        </g>
        <g id="x1">
            <path id="x1w" d="M297.194 88.791C306.356 94.9669 313.339 105.307 317.164 120.605C320.514 134.007 323.549 148.937 325.967 162.157C329.919 157.48 333.954 152.722 337.831 148.177C348.505 135.664 358.985 123.557 362.556 120.241L362.733 120.077C362.858 119.961 362.987 119.841 363.121 119.716L363.138 119.7C366.453 116.614 372.663 110.832 380.286 107.506C384.505 105.665 389.688 104.313 395.499 104.761C401.445 105.22 407.094 107.495 412.178 111.45C419.789 117.37 423.777 125.793 423.56 135.172C432.645 135.012 444.033 137.377 451.5 147.898C455.395 153.386 457.921 159.402 458.329 165.949C458.737 172.503 456.941 178.258 454.417 183.068C450.492 190.548 443.598 197.594 438.031 203.284C437.207 204.126 436.412 204.938 435.66 205.718C430.924 210.629 423.323 218.163 415.257 226.055C435.379 224.358 456.173 223 467.083 223C479.25 223 488.923 226.702 495.724 233.163C502.286 239.396 505.058 247.156 505.54 253.426C506.613 267.37 496.502 284.394 474.873 290.477C466.543 292.82 447.54 296.304 429.576 299.345C452.08 317.804 478.761 339.977 488.158 348.787C497.983 357.997 505.025 369.874 507.49 382.03C509.97 394.258 507.925 408.308 497.06 418.303C486.023 428.457 471.889 428.591 460.808 426.509C449.597 424.402 438.206 419.458 429.103 415.159C417.886 409.863 387.339 392.033 362.548 376.732C364.319 401.493 366.279 429.501 366.568 435.865L366.586 436.264C366.821 441.387 367.185 449.36 365.55 456.589C363.736 464.607 358.672 474.624 346.266 478.007C338.103 480.233 328.905 480.231 319.831 475.589C311.121 471.133 304.13 463.214 298.344 452.799C291.396 440.292 266.506 389.339 249.535 354.299C236.86 366.891 221.652 381.902 207.436 395.743C187.841 414.823 169.151 432.652 162.153 438.07C154.358 444.105 144.566 451.129 134.321 454.759C123.442 458.613 109.896 459.238 98.3065 448.986C91.8485 443.273 89.0744 435.943 88.9668 428.66C88.868 421.969 90.9945 415.818 93.2111 411.074C96.8859 403.209 102.636 395.68 105.545 391.872L105.546 391.871C106.059 391.199 106.484 390.643 106.793 390.221C110.587 385.047 147.276 336.644 173.396 302.215C148.072 296.255 116.335 288.678 108.663 286.44C107.757 286.176 106.462 285.84 104.878 285.428C98.6123 283.8 87.8261 280.998 78.7657 276.86C72.9151 274.187 66.3649 270.392 61.3161 264.855C55.9398 258.96 52.1941 250.927 53.1488 241.141C53.9749 232.673 57.5481 225.692 63.013 220.406C68.2008 215.388 74.5301 212.425 80.3517 210.55C90.403 207.312 102.177 206.412 110.592 205.769L110.595 205.768C111.597 205.692 112.552 205.619 113.45 205.546C127.059 204.443 185.67 202.76 222.199 201.82C224.638 176.95 229.39 143.779 231.948 132.819C233.781 124.961 237.004 113.442 242.46 103.592C247.562 94.3799 257.301 82 273.582 82C279.099 82 288.243 82.7573 297.194 88.791Z" fill="white"></path>
            <path id="x1b" d="M303.58 124C297.18 98.4 282.08 96 273.58 96C257.081 96 249.08 121 245.58 136C242.78 148 236.747 191.334 235.08 215.5C201.08 216.334 129.38 218.3 114.58 219.5C96.0801 221 69.0812 222 67.0812 242.5C65.0812 263 100.581 269.5 112.581 273C122.181 275.8 173.248 287.834 197.581 293.5C172.914 326 122.481 392.5 118.081 398.5C112.581 406 94.581 427 107.581 438.5C120.581 450 138.081 439 153.581 427C165.981 417.4 225.414 358.667 253.581 330.5C269.248 363 302.581 431.6 310.581 446C320.581 464 331.581 467.5 342.581 464.5C353.581 461.5 353.081 447.5 352.581 436.5C352.181 427.7 348.414 375.167 346.581 350C369.914 365.5 420.68 395.7 435.08 402.5C453.08 411 475.08 419.5 487.58 408C500.08 396.5 494.581 374 478.581 359C465.781 347 418.581 308.334 396.581 290.5C416.081 287.5 458.281 280.6 471.081 277C487.081 272.5 492.08 261 491.58 254.5C491.08 248 485.58 237 467.081 237C448.642 237 399.081 241.167 376.581 244C388.414 232.667 414.781 207.2 425.581 196C439.081 182 451.081 171.5 440.081 156C431.281 143.6 409.414 150.834 399.581 156C411.581 141.5 412.58 129.5 403.581 122.5C391.126 112.812 379.283 123.811 372.259 130.335L372.081 130.5C366.481 135.7 333.081 175.334 317.081 194.5C315.248 181.167 309.98 149.6 303.58 124Z" fill="black"></path>
        </g>
    </g>
</svg>