<svg width="46" height="45" viewBox="0 0 46 45" fill="none" xmlns="http://www.w3.org/2000/svg">
<path d="M22.8921 10.606C9.20053 10.606 3.45215 25.1406 3.45215 25.3921C3.45215 25.6436 9.20053 40.1782 22.8921 40.1782C36.5837 40.1782 42.3321 25.6436 42.3321 25.3921C42.3321 25.1406 36.5837 10.606 22.8921 10.606Z" stroke="black" stroke-width="4" stroke-linecap="round" stroke-linejoin="round"/>
<path d="M7.78282 18.1868L2 12.5815" stroke="black" stroke-width="4" stroke-linecap="round" stroke-linejoin="round"/>
<path d="M16.8642 11.6108L14.7168 4.82129" stroke="black" stroke-width="4" stroke-linecap="round" stroke-linejoin="round"/>
<path d="M38.0928 18.2874L43.7859 12.5815" stroke="black" stroke-width="4" stroke-linecap="round" stroke-linejoin="round"/>
<path d="M28.9346 11.6109L31.0692 4.82129" stroke="black" stroke-width="4" stroke-linecap="round" stroke-linejoin="round"/>
<path d="M17.2939 25.3927C17.2939 26.1281 17.4388 26.8562 17.7202 27.5355C18.0016 28.2148 18.414 28.8321 18.9339 29.352C19.4539 29.872 20.0711 30.2844 20.7505 30.5658C21.4298 30.8472 22.1579 30.992 22.8932 30.992C23.6285 30.992 24.3566 30.8472 25.036 30.5658C25.7153 30.2844 26.3326 29.872 26.8525 29.352C27.3725 28.8321 27.7849 28.2148 28.0663 27.5355C28.3477 26.8562 28.4925 26.1281 28.4925 25.3927C28.4925 24.6574 28.3477 23.9293 28.0663 23.25C27.7849 22.5707 27.3725 21.9534 26.8525 21.4335C26.3326 20.9135 25.7153 20.5011 25.036 20.2197C24.3566 19.9383 23.6285 19.7935 22.8932 19.7935C22.1579 19.7935 21.4298 19.9383 20.7505 20.2197C20.0711 20.5011 19.4539 20.9135 18.9339 21.4335C18.414 21.9534 18.0016 22.5707 17.7202 23.25C17.4388 23.9293 17.2939 24.6574 17.2939 25.3927Z" stroke="black" stroke-width="4"/>
</svg>
