<svg viewBox="0 0 713 713" fill="none" xmlns="http://www.w3.org/2000/svg" >
    <g id="ox2">
        <g id="o2">
            <circle id="ob" cx="356.5" cy="356.5" r="356.5" fill="#EB5B56"></circle>
            <circle id="ow" cx="356.5" cy="356.5" r="225.5" fill="white"></circle>
        </g>
        <g id="x2">
            <path id="x2w" fill-rule="evenodd" clip-rule="evenodd" d="M313.173 178.981C318.271 169.845 322.418 162.412 324.867 157.94C326.306 155.313 327.974 152.038 329.811 148.43C334.198 139.817 339.55 129.306 345.059 121.182C349.123 115.19 354.254 108.88 360.67 104.547C367.544 99.9053 376.433 97.2591 386.263 100.284C394.153 102.712 400.343 107.38 404.502 113.866C408.456 120.034 410.023 126.973 410.538 133.35C411.537 145.72 408.796 160.044 406.363 171.964C404.284 182.151 401.284 198.029 398.444 213.376C405.975 207.621 413.823 201.657 421.372 195.97C439.431 182.367 456.881 169.505 463.566 165.587C470.571 161.48 481.39 155.172 492.859 152.623C505.222 149.876 520.069 151.231 531.662 164.423C544.762 179.329 539.822 196.557 534.189 207.379C529.699 216.004 522.98 224.157 518.694 229.271C528.225 226.37 537.074 223.903 542.642 222.89C543.763 222.686 545.056 222.434 546.489 222.155C554.296 220.633 566.282 218.296 577.56 218.479C590.901 218.695 608.883 222.577 617.34 240.76C624.426 255.994 622.837 270.757 615.398 283.926C608.458 296.21 596.606 306.892 583.367 316.496C569.035 326.894 544.059 342.996 523.669 355.84C547.918 365.413 576.042 376.573 583.601 379.771C590.122 382.53 600.406 387.093 608.689 394.102C617.239 401.337 625.553 412.952 622.966 428.906C620.328 445.169 607.918 453.728 597.123 457.952C586.317 462.18 574.214 463.388 565.583 463.658C556.62 463.938 535.908 462.633 517.417 461.236C518.604 463.465 519.793 465.717 520.959 467.952C526.499 478.573 532.206 490.072 534.427 496.737C537.053 504.613 539.257 515.076 538.621 525.805C537.98 536.633 534.32 548.908 523.947 558.128C517.999 563.415 510.421 566.176 503.112 567.467C495.671 568.781 487.536 568.754 479.413 567.666C463.253 565.501 445.488 558.912 431.066 547.728C417.031 536.843 392.148 515.931 372.267 498.995C370.729 521.895 368.923 547.978 368.092 557.395C367.313 566.224 365.681 578.414 361.382 589.084C357.176 599.525 348.772 612.217 332.626 614.524C317.38 616.702 304.291 608.263 295.316 599.069C285.999 589.525 278.521 576.696 273.955 563.855C268.894 549.619 260.422 515.757 254.219 489.679C229.807 510.415 198.007 537.499 189.923 544.651C183.312 550.498 174.107 558.108 163.932 562.726C153.57 567.428 139.551 570.093 126.381 561.313C119.643 556.822 115.486 550.542 113.79 543.385C112.206 536.703 112.943 530.051 114.266 524.406C116.617 514.382 121.866 503.653 125.949 495.309C126.33 494.531 126.7 493.774 127.057 493.04C131.055 484.822 145.622 460.623 161.212 435.589C173.762 415.437 187.468 393.961 197.862 378.392C175.042 359.734 140.425 331.422 130.759 323.483C130.441 323.221 130.108 322.949 129.763 322.665C122.822 316.978 110.519 306.895 101.666 294.816C92.5 282.31 83.9788 263.165 95.5973 243.534C100.128 235.88 105.648 229.852 112.41 225.697C119.208 221.52 126.421 219.753 133.522 219.372C145.503 218.73 158.735 222.141 170.599 225.199C171.781 225.503 172.948 225.804 174.1 226.097C193.767 231.103 242.097 245.485 271.661 254.418C284.372 230.596 301.334 200.197 313.173 178.981Z" fill="white"></path>
            <path id="x2b" d="M337.147 164.665C327.947 181.465 296.313 237.332 278.646 271.165C251.813 262.999 192.646 245.265 170.646 239.665C143.146 232.665 122.145 226.165 107.645 250.665C93.1455 275.165 125.645 301.165 139.645 312.665C150.845 321.865 195.645 358.498 216.645 375.665C195.979 405.332 146.847 484.365 139.647 499.165C130.647 517.665 119.147 539.665 134.147 549.665C149.147 559.665 167.647 545.665 180.647 534.165C191.047 524.965 239.647 483.665 262.647 464.165C268.147 488.332 280.747 541.165 287.147 559.165C295.147 581.665 313.147 603.165 330.647 600.665C348.147 598.165 352.647 573.165 354.147 556.165C355.347 542.565 358.646 493.165 360.146 470.165C378.479 485.998 420.046 521.465 439.646 536.665C464.146 555.665 501.146 559.665 514.646 547.665C528.146 535.665 525.646 514.665 521.146 501.165C517.546 490.365 500.646 459.332 492.646 445.165C511.479 446.832 552.346 450.065 565.146 449.665C581.146 449.165 606.146 445.165 609.146 426.665C612.146 408.165 591.146 398.165 578.146 392.665C567.746 388.265 516.813 368.165 492.646 358.665C511.646 346.998 554.746 319.965 575.146 305.165C600.646 286.665 614.646 268.165 604.646 246.665C594.646 225.165 561.646 233.665 545.146 236.665C531.946 239.065 493.313 251.998 475.646 258.165C482.646 250.165 498.346 232.065 505.146 223.665C513.646 213.165 535.646 190.165 521.146 173.665C506.646 157.165 485.146 169.165 470.646 177.665C459.046 184.465 404.146 226.498 378.146 246.665C381.313 228.998 388.646 188.765 392.646 169.165C397.646 144.665 401.646 119.665 382.146 113.665C362.646 107.665 348.647 143.665 337.147 164.665Z" fill="black"></path>
        </g>
    </g>
</svg>